# xmcd CD database file
#
# Track frame offsets:
#	150
#	32922
#	66059
#	93720
#	125897
#	167815
#	199820
#	222319
#	252775
#	284695
#
# Disc length: 4360 seconds
#
# Revision: 0
# Processed by: cddbd v1.5.2PL0 Copyright (c) Steve Scherf et al.
# Submitted via: CDex 1.51
#
DISCID=a111060a
DTITLE=Various Artist - Greatest Works: Trumpet, CD2
DYEAR=2008
DGENRE=Jazz
TTITLE0=Buck Clayton Jam Session - All the cats join in
TTITLE1=Fats Navarro w - Wnew Saturday Night Swing Session - Sweet Georgia Brown
TTITLE2=Clark Terry - Swahili
TTITLE3=Clifford Brown - Max Roach Quintet - Jordu (Jordan)
TTITLE4=Clifford Brown - Max Roach Quintet - I´ll remember April
TTITLE5=Chet Baker Quartet - Autumn in New York
TTITLE6=Art Farmer Quintet - Confab in tempo
TTITLE7=Kenny Dorham w - Horace Silver Quintet - Doodlin´
TTITLE8=Miles Davis - Cannonball Adderley - Love for sale
TTITLE9=Lee Morgan - Night in Tunisia
EXTD=YEAR: 2008
EXTT0=
EXTT1=
EXTT2=
EXTT3=
EXTT4=
EXTT5=
EXTT6=
EXTT7=
EXTT8=
EXTT9=
PLAYORDER=
